# AST/ASF file generated using VICON BodyLanguage
# -----------------------------------------------
:version 1.10
:name VICON
:units
  mass 1.0
  length 0.45
  angle deg
:documentation
   .ast/.asf automatically generated from VICON data using
   VICON BodyBuilder and BodyLanguage model FoxedUp or BRILLIANT.MOD
:root
   order TX TY TZ RX RY RZ
   axis XYZ
   position 0 0 0  
   orientation 0 0 0 
:bonedata
  begin
     id 1 
     name lhipjoint
     direction 0.560651 -0.75055 0.34978 
     length 2.44936 
     axis 0 0 0  XYZ
  end
  begin
     id 2 
     name lfemur
     direction 0.34202 -0.939693 0  
     length 7.42139  
     axis 0 0 20  XYZ
    dof rx ry rz
    limits (-160.0 20.0)
           (-70.0 70.0)
           (-60.0 70.0)
  end
  begin
     id 3 
     name ltibia
     direction 0.34202 -0.939693 0   
     length 7.75674   
     axis 0 0 20   XYZ
    dof rx
    limits (-10.0 170.0)
  end
  begin
     id 4 
     name lfoot
     direction 0.0925879 -0.254383 0.962661   
     length 2.38688   
     axis -90 7.62852e-016 20   XYZ
    dof rx rz
    limits (-45.0 90.0)
           (-70.0 20.0)
  end
  begin
     id 5 
     name ltoes
     direction 1.53567e-011 -4.21973e-011 1   
     length 1.19228   
     axis -90 7.62852e-016 20   XYZ
    dof rx
    limits (-90.0 20.0)
  end
  begin
     id 6 
     name rhipjoint
     direction -0.540087 -0.762838 0.355506   
     length 2.4099  
     axis 0 0 0  XYZ 
  end
  begin
     id 7 
     name rfemur
     direction -0.34202 -0.939693 0   
     length 7.70794   
     axis 0 0 -20   XYZ
    dof rx ry rz
    limits (-160.0 20.0)
           (-70.0 70.0)
           (-70.0 60.0)
  end
  begin
     id 8 
     name rtibia
     direction -0.34202 -0.939693 0   
     length 7.66106   
     axis 0 0 -20   XYZ
    dof rx
    limits (-10.0 170.0)
 end
 begin
     id 9 
     name rfoot
     direction -0.0830975 -0.228308 0.970036   
     length 2.4989  
     axis -90 -7.62852e-016 -20   XYZ
    dof rx rz
    limits (-45.0 90.0)
           (-20.0 70.0)
  end
  begin
     id 10 
     name rtoes
     direction -1.53517e-011 -4.21842e-011 1   
     length 1.2498   
     axis -90 -7.62852e-016 -20   XYZ
    dof rx
    limits (-90.0 20.0)
  end
  begin
     id 11 
     name lowerback
     direction 0.0266356 0.99402 -0.105896   
     length 2.1545   
     axis 0 0 0   XYZ
    dof rx ry rz
    limits (-20.0 45.0)
           (-30.0 30.0)
           (-30.0 30.0)
  end
  begin
     id 12 
     name upperback
     direction 0.0130547 0.999192 0.0380027   
     length 2.1434   
     axis 0 0 0   XYZ
    dof rx ry rz
    limits (-20.0 45.0)
           (-30.0 30.0)
           (-30.0 30.0)
  end
  begin
     id 13 
     name thorax
     direction 0.000590299 0.996288 0.0860764   
     length 2.19049   
     axis 0 0 0   XYZ
    dof rx ry rz
    limits (-20.0 45.0)
           (-30.0 30.0)
           (-30.0 30.0)
  end
  begin
     id 14 
     name lowerneck
     direction -0.0432125 0.978219 0.203028   
     length 1.62441   
     axis 0 0 0   XYZ
    dof rx ry rz
    limits (-20.0 45.0)
           (-30.0 30.0)
           (-30.0 30.0)
  end
  begin
     id 15 
     name upperneck
     direction -0.0192309 0.991699 -0.127138   
     length 1.66666   
     axis 0 0 0   XYZ
    dof rx ry rz
    limits (-20.0 45.0)
           (-30.0 30.0)
           (-30.0 30.0)
  end
  begin
     id 16
     name head
     direction -0.00434499 0.997882 -0.0649107  
     length 1.67142  
     axis 0 0 0   XYZ
    dof rx ry rz
    limits (-20.0 45.0)
           (-30.0 30.0)
           (-30.0 30.0)
  end
  begin
     id 17 
     name lclavicle
     direction 0.970351 0.240904 -0.0196058  
     length 4.04862  
     axis 0 0 0   XYZ
    dof ry rz
    limits (-20.0 10.0)
           (0.0 20.0)
  end
  begin
     id 18 
     name lhumerus
     direction 1 -4.4896e-011 -1.40911e-018   
     length 5.58345   
     axis 180 -30 -90   XYZ
    dof rx ry rz
    limits (-60.0 90.0)
           (-90.0 90.0)
           (-90.0 90.0)
  end
  begin
     id 19
     name lradius
     direction 1 -4.48968e-011 5.88912e-028   
     length 3.71087   
     axis 180 -30 -90   XYZ
    dof rx
    limits (-10.0 170.0)
  end
  begin
     id 20
     name lwrist
     direction 1 -4.48955e-011 -8.83775e-028   
     length 1.85544   
     axis 5.52448e-016 90 90   XYZ
    dof ry
    limits (-180.0 0.0)
 end
  begin
     id 21 
     name lhand
     direction 1 -4.49035e-011 -1.76755e-027   
     length 0.562322   
     axis 1.12785e-015 90 90   XYZ
    dof rx rz
    limits (-90.0 90.0)
           (-45.0 45.0)
  end
  begin
     id 22 
     name lfingers
     direction 1 -4.48824e-011 -3.5351e-027   
     length 0.453359   
     axis 2.2557e-015 90 90   XYZ
    dof rx
    limits (0.0 90.0)
  end
  begin
     id 23
     name lthumb
     direction 0.707107 -6.34888e-011 0.707107   
     length 0.650935   
     axis -90 45 2.85299e-015   XYZ
    dof rx rz
    limits (-45.0 45.0)
           (-45.0 45.0)
  end
  begin
     id 24 
     name rclavicle
     direction -0.96165 0.268562 -0.0557131   
     length 4.05446  
     axis 0 0 0   XYZ 
    dof ry rz
    limits (-10.0 20.0)
           (-20.0 0.0)
  end
  begin
     id 25 
     name rhumerus
     direction -1 -4.48957e-011 -3.36329e-027  
     length 5.20357   
     axis 180 30 90   XYZ
    dof rx ry rz
    limits (-90.0 60.0)
           (-90.0 90.0)
           (-90.0 90.0)
  end
  begin
     id 26 
     name rradius
     direction -1 -4.48974e-011 4.51441e-027   
     length 3.64937   
     axis 180 30 90   XYZ
    dof rx
    limits (-10.0 170.0)
  end
  begin
     id 27 
     name rwrist
     direction -1 -4.4896e-011 -8.83775e-028   
     length 1.82468   
     axis 5.52448e-016 -90 -90   XYZ
    dof ry
    limits (-180.0 0.0)
  end
  begin
     id 28
     name rhand
     direction -1 -4.48996e-011 -1.76755e-027   
     length 0.617996   
     axis 1.12785e-015 -90 -90   XYZ
    dof rx rz
    limits (-90.0 90.0)
           (-45.0 45.0)
  end
  begin
     id 29
     name rfingers
     direction -1 -4.48957e-011 -3.5351e-027   
     length 0.498244   
     axis 2.2557e-015 -90 -90   XYZ
    dof rx
    limits (0.0 90.0)
  end
  begin
     id 30
     name rthumb
     direction -0.707107 -6.34931e-011 0.707107   
     length 0.715382   
     axis -90 -45 -2.85299e-015   XYZ
    dof rx rz
    limits (-45.0 45.0)
           (-45.0 45.0)
  end
:hierarchy
  begin
    root lhipjoint rhipjoint lowerback
    lhipjoint lfemur
    lfemur ltibia
    ltibia lfoot
    lfoot ltoes
    rhipjoint rfemur
    rfemur rtibia
    rtibia rfoot
    rfoot rtoes
    lowerback upperback
    upperback thorax
    thorax lowerneck lclavicle rclavicle
    lowerneck upperneck
    upperneck head
    lclavicle lhumerus
    lhumerus lradius
    lradius lwrist
    lwrist lhand lthumb
    lhand lfingers
    rclavicle rhumerus
    rhumerus rradius
    rradius rwrist
    rwrist rhand rthumb
    rhand rfingers
  end

#!OML:ASF H:\ManfredETheater\Project 1\Capture day 2\Session 1\Male1.ASF
:FULLY-SPECIFIED
:DEGREES
64
root 7.78453 16.219 21.0975 -118.842 -6.77778 194.679
lowerback 43.4821 -0.105509 4.31009
upperback 8.04462 4.795 3.5569
thorax -11.4924 2.85561 -0.681931
lowerneck -18.0021 3.23474 -0.892741
upperneck 3.27051 5.04585 -4.67131
head 3.94568 2.26118 -0.878659
rclavicle 3.89618e-014 1.53064e-014
rhumerus 64.4836 7.58248 -54.0476
rradius 49.4069
rwrist -0.247113
rhand -37.0417 -1.49822
rfingers 7.12502
rthumb -10.1148 -31.2351
lclavicle 3.89618e-014 1.53064e-014
lhumerus 41.9541 3.98434 69.4594
lradius 85.5957
lwrist -1.90264
lhand -25.6765 -0.818349
lfingers 7.12502
lthumb 0.858219 29.1597
rfemur -38.4669 -10.0244 18.9941
rtibia 42.9863
rfoot -23.0132 -11.9618
rtoes -17.379
lfemur -84.417 5.13931 -2.41072
ltibia 64.8516
lfoot -28.5458 -4.82721
ltoes -5.43747
65
root 7.6001 16.3396 20.6644 -116.155 -6.84715 194.742
lowerback 42.6238 0.130709 4.34649
upperback 7.81564 4.92583 3.70603
thorax -11.5078 2.85928 -0.576684
lowerneck -17.8632 3.1818 -0.766525
upperneck 3.06402 4.93506 -4.6395
head 3.86013 2.21868 -0.9019
rclavicle -1.59028e-014 -1.2921e-014
rhumerus 66.072 7.18832 -53.0993
rradius 48.7783
rwrist 0.412158
rhand -36.7192 -1.73732
rfingers 7.12502
rthumb -9.80374 -31.4891
lclavicle -1.59028e-014 -1.2921e-014
lhumerus 43.9219 4.87589 67.9316
lradius 84.1506
lwrist -2.80696
lhand -26.2977 -1.33288
lfingers 7.12502
lthumb 0.258223 28.6467
rfemur -39.6963 -9.68347 18.3839
rtibia 44.5034
rfoot -23.0357 -10.6772
rtoes -18.4969
lfemur -84.3404 5.12531 -2.82457
ltibia 62.1375
lfoot -27.5205 -5.02973
ltoes -4.96731
66
root 7.41823 16.4605 20.2253 -113.553 -6.97155 194.72
lowerback 41.8864 0.308285 4.40187
upperback 7.60014 5.02107 3.85917
thorax -11.5372 2.85309 -0.463281
lowerneck -17.7126 3.11771 -0.653576
upperneck 2.79915 4.81197 -4.60219
head 3.75401 2.1725 -0.922828
rclavicle 7.15625e-015 1.2921e-014
rhumerus 67.7368 6.77613 -52.155
rradius 48.055
rwrist 1.29147
rhand -36.4466 -1.94209
rfingers 7.12502
rthumb -9.54069 -31.7061
lclavicle 7.15625e-015 1.2921e-014
lhumerus 45.8592 5.87323 66.4488
lradius 82.687
lwrist -3.60976
lhand -26.8739 -1.85634
lfingers 7.12502
lthumb -0.298267 28.1232
rfemur -40.8452 -9.47675 17.7937
rtibia 46.4299
rfoot -23.0831 -9.09179
rtoes -19.7835
lfemur -84.128 5.04404 -3.20037
ltibia 59.239
lfoot -26.1797 -5.47604
ltoes -4.49094
67
root 7.23635 16.5807 19.7778 -111.06 -7.18555 194.55
lowerback 41.3198 0.37535 4.55091
upperback 7.3923 5.05139 4.01345
thorax -11.5998 2.82108 -0.372509
lowerneck -17.5862 3.05264 -0.530529
upperneck 2.51929 4.68761 -4.56793
head 3.6473 2.12581 -0.945961
rclavicle -1.98785e-014 -9.93923e-015
rhumerus 69.4594 6.33949 -51.2456
rradius 47.2533
rwrist 2.32472
rhand -36.2495 -2.1807
rfingers 7.12502
rthumb -9.35053 -31.9533
lclavicle -1.98785e-014 -9.93923e-015
lhumerus 47.7538 6.95563 65.0433
lradius 81.2326
lwrist -4.29261
lhand -27.2797 -2.33051
lfingers 7.12502
lthumb -0.690216 27.6481
rfemur -41.8166 -9.4963 17.2591
rtibia 48.6367
rfoot -23.0507 -7.5546
rtoes -20.5033
lfemur -83.7566 4.81784 -3.53682
ltibia 56.1438
lfoot -24.492 -6.15024
ltoes -4.05994
68
root 7.05277 16.6991 19.3203 -108.673 -7.50528 194.181
lowerback 40.9345 0.301793 4.85058
upperback 7.18458 5.00119 4.16792
thorax -11.706 2.75305 -0.328864
lowerneck -17.4786 2.98882 -0.380397
upperneck 2.21049 4.562 -4.54785
head 3.53553 2.07882 -0.977584
rclavicle -7.95139e-015 0
rhumerus 71.1964 5.87273 -50.4114
rradius 46.3959
rwrist 3.46251
rhand -36.1697 -2.46874
rfingers 7.12502
rthumb -9.27351 -32.2448
lclavicle -7.95139e-015 0
lhumerus 49.6087 8.09745 63.7367
lradius 79.7936
lwrist -4.88809
lhand -27.4829 -2.69134
lfingers 7.12502
lthumb -0.886458 27.2866
rfemur -42.5583 -9.80419 16.8117
rtibia 51.0197
rfoot -22.8625 -6.33537
rtoes -20.867
lfemur -83.227 4.39517 -3.83185
ltibia 52.8559
lfoot -22.4442 -6.98179
ltoes -3.8761
69
root 6.86813 16.8136 18.853 -106.335 -7.92518 193.625
lowerback 40.6564 0.115686 5.30716
upperback 6.96957 4.89906 4.33443
thorax -11.8428 2.6598 -0.333256
lowerneck -17.2177 2.93706 -0.0724392
upperneck 1.46231 4.41427 -4.55425
head 3.67243 2.03709 -1.13776
rclavicle -3.89618e-014 -3.06128e-014
rhumerus 72.8867 5.36742 -49.6761
rradius 45.5226
rwrist 4.62215
rhand -36.2199 -2.83501
rfingers 7.12502
rthumb -9.32199 -32.6089
lclavicle -3.89618e-014 -3.06128e-014
lhumerus 51.4322 9.25841 62.5713
lradius 78.3607
lwrist -5.44942
lhand -27.5058 -2.99161
lfingers 7.12502
lthumb -0.90856 26.9862
rfemur -43.1146 -10.3711 16.4932
rtibia 53.5074
rfoot -22.5085 -5.58821
rtoes -20.881
lfemur -82.5965 3.81601 -4.07128
ltibia 49.3907
lfoot -20.0405 -7.87126
ltoes -4.14005
70
root 6.68453 16.9219 18.3773 -103.957 -8.40446 192.934
lowerback 40.3571 -0.127033 5.87721
upperback 6.74297 4.77736 4.5109
thorax -11.9768 2.55554 -0.375984
lowerneck -17.126 2.86033 0.161507
upperneck 1.1103 4.26091 -4.56573
head 3.53203 1.97648 -1.19845
rclavicle 1.11319e-014 2.22639e-014
rhumerus 74.4846 4.82786 -49.0642
rradius 44.6758
rwrist 5.71807
rhand -36.4698 -3.30106
rfingers 7.12502
rthumb -9.56312 -33.064
lclavicle 1.11319e-014 2.22639e-014
lhumerus 53.2187 10.4148 61.5572
lradius 76.9229
lwrist -6.09703
lhand -27.4395 -3.20496
lfingers 7.12502
lthumb -0.844588 26.7731
rfemur -43.6064 -11.126 16.3259
rtibia 56.0585
rfoot -21.9588 -5.32721
rtoes -20.4343
lfemur -81.9642 3.18342 -4.27468
ltibia 45.7914
lfoot -17.3604 -8.65112
ltoes -5.18315
71
root 6.50422 17.0211 17.8949 -101.48 -8.89797 192.169
lowerback 39.9308 -0.366336 6.50144
upperback 6.51205 4.669 4.69172
thorax -12.0674 2.45713 -0.444433
lowerneck -17.0728 2.77885 0.45059
upperneck 0.77121 4.09361 -4.58669
head 3.40548 1.90788 -1.27261
rclavicle -6.04305e-014 -4.53229e-014
rhumerus 75.9601 4.25001 -48.6086
rradius 43.8824
rwrist 6.72937
rhand -36.7806 -3.89999
rfingers 7.12502
rthumb -9.86294 -33.649
lclavicle -6.04305e-014 -4.53229e-014
lhumerus 54.975 11.5422 60.7012
lradius 75.4563
lwrist -6.95081
lhand -27.435 -3.41037
lfingers 7.12502
lthumb -0.84026 26.5677
rfemur -44.1307 -11.9827 16.3076
rtibia 58.6464
rfoot -21.2425 -5.4631
rtoes -19.5628
lfemur -81.4061 2.58658 -4.46256
ltibia 42.1305
lfoot -14.5069 -9.13325
ltoes -7.10992
72
root 6.32957 17.1079 17.4088 -98.8498 -9.36607 191.405
lowerback 39.286 -0.528604 7.10376
upperback 6.2666 4.61851 4.88493
thorax -12.0988 2.38654 -0.50926
lowerneck -17.0109 2.6835 0.756936
upperneck 0.446917 3.90388 -4.58117
head 3.28154 1.82831 -1.3425
rclavicle 5.24792e-014 6.0033e-014
rhumerus 77.266 3.65447 -48.2974
rradius 43.1706
rwrist 7.63135
rhand -37.1306 -4.62603
rfingers 7.12502
rthumb -10.2007 -34.3587
lclavicle 5.24792e-014 6.0033e-014
lhumerus 56.6802 12.6047 60.0212
lradius 73.9433
lwrist -8.05881
lhand -27.5788 -3.65777
lfingers 7.12502
lthumb -0.979104 26.3197
rfemur -44.7921 -12.8487 16.4403
rtibia 61.251
rfoot -20.4236 -5.89042
rtoes -18.1932
lfemur -81.0042 2.13112 -4.67704
ltibia 38.5197
lfoot -11.6415 -9.17684
ltoes -10.0134
73
root 6.16202 17.1796 16.9205 -96.0907 -9.78194 190.72
lowerback 38.4399 1.0536 8.913
upperback 5.83034 4.02555 5.21828
thorax -12.0602 0.907633 -0.558419
lowerneck -16.9444 2.57841 1.05106
upperneck 0.170398 3.70058 -4.50609
head 3.17074 1.74242 -1.38752
rclavicle -5.32743e-014 -1.07344e-014
rhumerus 78.3933 3.06749 -48.1385
rradius 42.5422
rwrist 8.46045
rhand -37.5217 -5.44595
rfingers 7.12502
rthumb -10.5779 -35.1597
lclavicle -5.32743e-014 -1.07344e-014
lhumerus 58.3103 13.5859 59.5002
lradius 72.3897
lwrist -9.44003
lhand -27.9209 -3.94446
lfingers 7.12502
lthumb -1.30953 26.0313
rfemur -45.5982 -13.643 16.7094
rtibia 63.8387
rfoot -19.5319 -6.44769
rtoes -16.3738
lfemur -80.7764 1.89262 -4.97601
ltibia 35.1119
lfoot -8.94995 -8.7304
ltoes -13.423
74
root 6.00096 17.234 16.4316 -93.2558 -10.1462 190.149
lowerback 37.4276 1.04989 9.22613
upperback 5.56716 4.18236 5.39671
thorax -11.9813 1.00817 -0.592564
lowerneck -16.8512 2.46261 1.36217
upperneck -0.0775307 3.4788 -4.40481
head 3.06402 1.64668 -1.42814
rclavicle 3.18055e-015 -7.95139e-015
rhumerus 79.3601 2.51466 -48.1474
rradius 41.9871
rwrist 9.28155
rhand -37.9517 -6.34184
rfingers 7.12502
rthumb -10.9927 -36.034
lclavicle 3.18055e-015 -7.95139e-015
lhumerus 59.8645 14.485 59.1131
lradius 70.7988
lwrist -11.0625
lhand -28.4915 -4.26835
lfingers 7.12502
lthumb -1.86062 25.7033
rfemur -46.4997 -14.3338 17.0948
rtibia 66.3645
rfoot -18.646 -7.03658
rtoes -14.2225
lfemur -80.7386 1.89378 -5.4313
ltibia 32.1014
lfoot -6.59896 -7.87153
ltoes -16.8079
75
root 5.84466 17.2703 15.9421 -90.4578 -10.4541 189.717
lowerback 36.3937 1.15082 9.43857
upperback 5.29954 4.41241 5.56223
thorax -11.8929 1.14166 -0.615604
lowerneck -16.7535 2.34059 1.63845
upperneck -0.226188 3.25142 -4.22131
head 2.98789 1.5471 -1.43513
rclavicle 7.95139e-016 -9.14409e-015
rhumerus 80.1726 2.03459 -48.3406
rradius 41.5049
rwrist 10.1632
rhand -38.393 -7.28463
rfingers 7.12502
rthumb -11.4183 -36.9537
lclavicle 7.95139e-016 -9.14409e-015
lhumerus 61.3093 15.2991 58.8379
lradius 69.2099
lwrist -12.864
lhand -29.1875 -4.60879
lfingers 7.12502
lthumb -2.53282 25.3559
rfemur -47.3618 -14.9144 17.5423
rtibia 68.7689
rfoot -17.8011 -7.55959
rtoes -11.6982
lfemur -80.854 2.11635 -6.1157
ltibia 29.7121
lfoot -4.68431 -6.78284
ltoes -19.7268
76
root 5.69009 17.2882 15.4521 -87.7919 -10.7183 189.405
lowerback 35.4515 1.31955 9.58839
upperback 5.03406 4.69588 5.71341
thorax -11.8273 1.29466 -0.639345
lowerneck -16.6537 2.20985 1.90994
upperneck -0.281251 3.01212 -4.01505
head 2.94309 1.43882 -1.43456
rclavicle 1.59028e-015 -3.33958e-014
rhumerus 80.859 1.63896 -48.688
rradius 41.0633
rwrist 11.1559
rhand -38.8315 -8.22649
rfingers 7.12502
rthumb -11.8412 -37.8717
lclavicle 1.59028e-015 -3.33958e-014
lhumerus 62.6412 16.0295 58.6583
lradius 67.6535
lwrist -14.766
lhand -30.0221 -4.97916
lfingers 7.12502
lthumb -3.33879 24.9744
rfemur -48.0591 -15.4292 18.0066
rtibia 70.9957
rfoot -17.0427 -7.98765
rtoes -9.28408
lfemur -81.1138 2.4908 -7.03823
ltibia 28.1614
lfoot -3.23354 -5.70067
ltoes -21.8108
77
root 5.53429 17.2879 14.9617 -85.3166 -10.9465 189.185
lowerback 34.6015 1.53262 9.68658
upperback 4.84938 5.0052 5.88733
thorax -11.8109 1.45326 -0.677029
lowerneck -16.5737 2.07195 2.14648
upperneck -0.198396 2.76635 -3.75995
head 2.94804 1.32485 -1.41195
rclavicle 5.40694e-014 4.09496e-014
rhumerus 81.4249 1.34974 -49.1372
rradius 40.6725
rwrist 12.2147
rhand -39.2694 -9.22495
rfingers 7.12502
rthumb -12.2635 -38.8454
lclavicle 5.40694e-014 4.09496e-014
lhumerus 63.8446 16.6777 58.5556
lradius 66.1686
lwrist -16.7131
lhand -30.8588 -5.31332
lfingers 7.12502
lthumb -4.14678 24.6261
rfemur -48.5062 -15.9196 18.4401
rtibia 72.9983
rfoot -16.3637 -8.27185
rtoes -6.90596
lfemur -81.5223 2.93555 -8.14093
ltibia 27.6094
lfoot -2.21538 -4.8495
ltoes -22.9956
78
root 5.37452 17.2694 14.4721 -83.0584 -11.1385 189.011
lowerback 34.0283 1.71965 9.83433
upperback 4.60049 5.31981 6.00455
thorax -11.8502 1.60246 -0.746752
lowerneck -16.4683 1.92627 2.34297
upperneck -0.0654638 2.51375 -3.44299
head 2.96338 1.20885 -1.36206
rclavicle 3.81667e-014 2.78299e-015
rhumerus 81.8589 1.16561 -49.6024
rradius 40.3725
rwrist 13.2554
rhand -39.84 -10.2188
rfingers 7.12502
rthumb -12.8135 -39.8055
lclavicle 3.81667e-014 2.78299e-015
lhumerus 64.9084 17.2403 58.5177
lradius 64.8008
lwrist -18.6675
lhand -31.636 -5.58574
lfingers 7.12502
lthumb -4.89727 24.3377
rfemur -48.6632 -16.45 18.7991
rtibia 74.7557
rfoot -15.785 -8.39429
rtoes -4.84434
lfemur -82.0566 3.34805 -9.28616
ltibia 28.0928
lfoot -1.53223 -4.37667
ltoes -23.4767
